<?xml version="1.0" encoding="iso-8859-1"?>
<!-- Generator: Adobe Illustrator 19.0.0, SVG Export Plug-In . SVG Version: 6.00 Build 0)  -->
<svg version="1.1" id="Layer_1" xmlns="http://www.w3.org/2000/svg" xmlns:xlink="http://www.w3.org/1999/xlink" x="0px" y="0px"
	 viewBox="0 0 512 512" style="enable-background:new 0 0 512 512;" xml:space="preserve">
<path style="fill:#5B5D6E;" d="M397.241,70.621L358.29,8.298C355.063,3.136,349.406,0,343.318,0H168.682
	c-6.088,0-11.745,3.136-14.972,8.298l-38.952,62.323L256,123.586L397.241,70.621z"/>
<path style="fill:#4E4F5F;" d="M350.791,1.779C348.474,0.689,345.959,0,343.318,0H168.682c-2.642,0-5.156,0.69-7.473,1.779
	l73.945,56.881c3.215,2.474,3.215,7.322,0,9.795l-41.35,31.807l19.467,7.3L256,74.695l0,0L350.791,1.779z"/>
<path style="fill:#707487;" d="M458.515,399.734l1.668,35.041c0.173,3.647-1.916,7.023-5.256,8.497l-67.021,29.559l-0.012,0.005
	v-73.102L458.515,399.734L458.515,399.734z"/>
<g>
	<polygon style="fill:#5B5D6E;" points="387.907,472.831 387.894,472.836 387.894,399.734 421.192,399.734 423.619,457.08 	"/>
	<path style="fill:#5B5D6E;" d="M123.586,467.862v35.31c0,4.875,3.953,8.828,8.828,8.828h247.172c4.875,0,8.828-3.953,8.828-8.828
		v-35.31H123.586z"/>
</g>
<path style="fill:#707487;" d="M53.485,399.734l-1.668,35.041c-0.173,3.647,1.916,7.023,5.256,8.497l67.021,29.559l0.012,0.005
	v-73.102L53.485,399.734L53.485,399.734z"/>
<polygon style="fill:#5B5D6E;" points="124.093,472.831 124.106,472.836 124.106,399.734 90.808,399.734 88.381,457.08 "/>
<path style="fill:#707487;" d="M460.189,122.283c-0.703-20.718-13.428-39.122-32.564-47.095l-66.022-27.509
	c-5.326-2.219-11.401-1.696-16.269,1.402l-75.116,47.801c-8.675,5.521-19.762,5.521-28.437,0l-75.116-47.801
	c-4.868-3.098-10.943-3.622-16.269-1.402l-66.02,27.51c-19.135,7.974-31.861,26.377-32.564,47.095l-9.423,277.678
	c-0.125,3.674,2.041,7.041,5.436,8.451l59.345,24.138l-0.772,26.03c-0.255,9.924,7.722,18.108,17.65,18.108h263.911
	c9.928,0,17.905-8.183,17.65-18.108l-0.772-26.03l59.343-24.138c3.395-1.41,5.561-4.778,5.436-8.451L460.189,122.283z"/>
<g>
	<path style="fill:#5B5D6E;" d="M47.825,408.414l59.343,24.138l7.591-256V163.18c0-14.047-5.58-27.519-15.513-37.452L63.98,90.463
		c-7.286,8.839-11.765,19.908-12.169,31.82l-9.423,277.678C42.264,403.636,44.429,407.003,47.825,408.414z"/>
	<path style="fill:#5B5D6E;" d="M323.541,325.255c6.904,40.855,21.086,73.115,28.823,88.544c2.3,4.587-1.047,9.926-6.178,9.926
		H165.814c-5.131,0-8.478-5.34-6.178-9.926c7.737-15.43,21.919-47.688,28.823-88.544c0.723-4.275,4.352-7.462,8.686-7.462h117.708
		C319.189,317.793,322.818,320.98,323.541,325.255z"/>
	<path style="fill:#5B5D6E;" d="M464.175,408.414l-59.343,24.138l-7.591-256V163.18c0-14.047,5.58-27.519,15.513-37.452
		l35.265-35.265c7.286,8.839,11.765,19.908,12.169,31.82l9.423,277.678C469.736,403.636,467.571,407.003,464.175,408.414z"/>
</g>
<path style="fill:#4E4F5F;" d="M415.158,185.118c-0.141-4.771-4.05-8.566-8.824-8.566c-4.978,0-8.97,4.113-8.824,9.087
	l7.323,246.913l17.453-7.1L415.158,185.118z"/>
<g>
	<path style="fill:#5B5D6E;" d="M273.655,229.517c4.879,0,8.828-3.953,8.828-8.828V89.078l-12.265,7.805
		c-1.709,1.088-3.53,1.899-5.39,2.558V220.69C264.828,225.565,268.776,229.517,273.655,229.517z"/>
	<path style="fill:#5B5D6E;" d="M238.345,229.517c4.879,0,8.828-3.953,8.828-8.828V99.441c-1.86-0.659-3.681-1.47-5.39-2.558
		l-12.265-7.805V220.69C229.517,225.565,233.465,229.517,238.345,229.517z"/>
</g>
<g>
	<circle style="fill:#4E4F5F;" cx="238.345" cy="220.69" r="8.828"/>
	<circle style="fill:#4E4F5F;" cx="273.655" cy="220.69" r="8.828"/>
	<path style="fill:#4E4F5F;" d="M96.842,185.118l-7.127,240.335l17.453,7.098l7.321-246.913c0.147-4.974-3.847-9.087-8.824-9.087
		C100.892,176.552,96.983,180.346,96.842,185.118z"/>
</g>
<g>
</g>
<g>
</g>
<g>
</g>
<g>
</g>
<g>
</g>
<g>
</g>
<g>
</g>
<g>
</g>
<g>
</g>
<g>
</g>
<g>
</g>
<g>
</g>
<g>
</g>
<g>
</g>
<g>
</g>
</svg>
