<?xml version="1.0" encoding="iso-8859-1"?>
<!-- Generator: Adobe Illustrator 19.0.0, SVG Export Plug-In . SVG Version: 6.00 Build 0)  -->
<svg version="1.1" id="Layer_1" xmlns="http://www.w3.org/2000/svg" xmlns:xlink="http://www.w3.org/1999/xlink" x="0px" y="0px"
	 viewBox="0 0 512 512" style="enable-background:new 0 0 512 512;" xml:space="preserve">
<path style="fill:#E09B2D;" d="M83.327,223.996c3.119-6.049,4.905-12.896,4.905-20.167v-45.448c0-12.186-4.938-23.216-12.928-31.206
	c-7.978-7.978-19.021-12.916-31.194-12.916C19.75,114.257,0,134.008,0,158.379v45.448c0,24.36,19.75,44.11,44.11,44.11
	c6.433,0,87.049,0,152.031,0C186.581,243.641,127.008,234.559,83.327,223.996z"/>
<polygon style="fill:#E54728;" points="291.937,243.072 291.937,368.336 232.488,325.244 260.001,243.072 "/>
<polygon style="fill:#F95428;" points="260.001,243.072 260.001,397.743 228.077,374.088 196.141,397.743 196.141,243.072 "/>
<rect x="196.141" y="243.072" style="fill:#E54728;" width="63.86" height="52.173"/>
<path style="fill:#F7B239;" d="M467.878,114.257H232.236h-49.206H44.11c12.174,0,23.216,4.938,31.194,12.916
	c7.99,7.99,12.928,19.021,12.928,31.206v45.448c0,17.926-10.702,33.359-26.062,40.267c5.509,2.469,11.614,3.843,18.036,3.843
	h102.826h13.11h36.095h235.642c24.372,0,44.122-19.75,44.122-44.11v-45.448C512,134.008,492.25,114.257,467.878,114.257z"/>
<path style="fill:#E09B2D;" d="M334.543,158.379v45.448c0,24.36-19.75,44.11-44.122,44.11h-4.159h-31.936h-27.765
	c24.36,0,44.11-19.75,44.11-44.11v-45.448c0-24.372-19.75-44.122-44.11-44.122h63.86
	C314.792,114.257,334.543,134.008,334.543,158.379z"/>
<path style="fill:#F95428;" d="M340.219,158.379v45.448c0,24.36-19.75,44.11-44.122,44.11h-4.159h-31.936h-27.765
	c24.36,0,44.11-19.75,44.11-44.11v-45.448c0-24.372-19.75-44.122-44.11-44.122h63.86
	C320.468,114.257,340.219,134.008,340.219,158.379z"/>
<path style="fill:#B27214;" d="M36.095,203.827h52.136c0,17.926-10.702,33.359-26.062,40.267
	C46.798,237.186,36.095,221.753,36.095,203.827z"/>
<g>
</g>
<g>
</g>
<g>
</g>
<g>
</g>
<g>
</g>
<g>
</g>
<g>
</g>
<g>
</g>
<g>
</g>
<g>
</g>
<g>
</g>
<g>
</g>
<g>
</g>
<g>
</g>
<g>
</g>
</svg>
