<?xml version="1.0" encoding="iso-8859-1"?>
<!-- Generator: Adobe Illustrator 19.0.0, SVG Export Plug-In . SVG Version: 6.00 Build 0)  -->
<svg version="1.1" id="Layer_1" xmlns="http://www.w3.org/2000/svg" xmlns:xlink="http://www.w3.org/1999/xlink" x="0px" y="0px"
	 viewBox="0 0 512 512" style="enable-background:new 0 0 512 512;" xml:space="preserve">
<rect x="18.289" y="1.979" transform="matrix(-0.7071 0.7071 -0.7071 -0.7071 83.5308 34.5995)" style="fill:#55A7A2;" width="32.621" height="65.241"/>
<polygon style="fill:#C1E8E6;" points="65.35,19.217 177.538,108.338 142.938,173.693 42.284,42.284 "/>
<polygon style="fill:#98D9D5;" points="42.284,42.284 158.315,158.315 108.338,177.537 19.217,65.35 "/>
<polygon style="fill:#C1E8E6;" points="465.868,373.602 512,419.734 465.868,465.867 388.979,419.734 "/>
<polygon style="fill:#55A7A2;" points="142.938,142.938 250.581,312.091 419.734,419.734 465.868,373.602 189.07,96.804 "/>
<polygon style="fill:#98D9D5;" points="404.357,404.356 465.868,465.867 419.734,512 373.602,465.867 "/>
<rect x="62.549" y="271.782" transform="matrix(0.7071 0.7071 -0.7071 0.7071 290.8916 -93.4685)" style="fill:#3B7D84;" width="391.446" height="65.241"/>
<rect x="461.087" y="1.981" transform="matrix(-0.7071 -0.7071 0.7071 -0.7071 790.5009 396.64)" style="fill:#FF9D49;" width="32.621" height="65.241"/>
<polygon style="fill:#FFB55F;" points="492.783,65.35 403.662,177.537 338.307,142.938 469.717,42.284 "/>
<polygon style="fill:#FFCC75;" points="469.717,42.284 353.685,158.315 334.462,108.338 446.65,19.217 "/>
<polygon style="fill:#F9DCA7;" points="138.398,465.867 92.266,512 46.132,465.867 92.266,388.979 "/>
<polygon style="fill:#FF9D49;" points="369.062,142.938 199.909,250.581 92.266,419.734 138.398,465.867 415.196,189.07 "/>
<polygon style="fill:#F2EBD9;" points="107.643,404.356 46.132,465.867 0,419.734 46.132,373.602 "/>
<rect x="11.875" y="225.651" transform="matrix(-0.7071 0.7071 -0.7071 -0.7071 537.0174 294.1028)" style="fill:#FFB55F;" width="391.446" height="65.241"/>
<g>
</g>
<g>
</g>
<g>
</g>
<g>
</g>
<g>
</g>
<g>
</g>
<g>
</g>
<g>
</g>
<g>
</g>
<g>
</g>
<g>
</g>
<g>
</g>
<g>
</g>
<g>
</g>
<g>
</g>
</svg>
